<?xml version="1.0" encoding="utf-8"?>
<!-- Generator: Adobe Illustrator 26.0.2, SVG Export Plug-In . SVG Version: 6.00 Build 0)  -->
<svg version="1.1" id="Слой_1" xmlns="http://www.w3.org/2000/svg" xmlns:xlink="http://www.w3.org/1999/xlink" x="0px" y="0px"
	 viewBox="0 0 1024 265.2" style="enable-background:new 0 0 1024 265.2;" xml:space="preserve">
<style type="text/css">
	.st0{fill:#D9E021;}
	.st1{fill:#1D1D1B;}
</style>
<g>
	<path class="st0" d="M96.5,214.7l-0.4-73.5c0-5.2,4.1-9.4,9.3-9.4l73.3-0.4c6.3,0,9.4-7.7,4.9-12.1L109.5,46
		c-3.7-3.6-9.6-3.6-13.2,0.1L10.1,133c-3.6,3.7-3.6,9.6,0.1,13.2l74.3,73.5C89,224.2,96.6,221,96.5,214.7z"/>
	<path class="st0" d="M111.1,214.8v-63.9c0-2.2,1.8-4,4-4h63.7c6.3,0,9.4,7.6,5,12l-60.7,60.9C118.6,224.2,111.1,221,111.1,214.8z"
		/>
</g>
<g>
	<path class="st1" d="M271.2,149.1l-43-69.5h43.6l18.4,37.9l18.4-37.9h43.6l-43,69.5v27.2h-38.2V149.1z"/>
	<path class="st1" d="M451.2,176.4h-32.8v-8.3h-0.3c-3.7,4.7-14.2,11.2-30.6,11.2c-18.7,0-32.8-8.4-32.8-29v-48.1h33.9v39.3
		c0,9.4,4.9,13.4,13,13.4c10.7,0,15.7-6.5,15.7-17.8v-35h33.9V176.4z"/>
	<path class="st1" d="M468,124.7c2-10.3,6.1-16.4,14.6-20.3c8.3-3.8,20.5-5.1,38.5-5.1c34.6,0,48.2,7.7,48.2,29.8v35.8
		c0,5.8,1.5,8.9,3.1,11.5h-34.7c-0.7-2.2-1.1-4.6-1.2-7.3c-7.6,7-19.1,10.3-37.1,10.3c-22.8,0-37.1-6.1-37.1-25.1
		c0-13.6,9.6-22.2,34.7-23.3l28.6-1.4c6.9-0.4,9.1-1.9,9.1-6.1c0-4.9-6-7.2-15.7-7.2c-7.6,0-15.6,1.2-17.1,8.4H468z M535.5,142.6
		c-5.8,1.2-15.3,2-27.4,3.1c-6.4,0.5-9.2,2.6-9.2,7.3c0,5.3,4.1,8.4,12.6,8.4c11.4,0,24-2.8,24-15.6V142.6z"/>
	<path class="st1" d="M585.4,102.2h32.8v10.2h0.3c5.3-6.9,13.6-12.2,27.6-12.2c14.6,0,20.5,5,24.5,12.3c4.7-6.9,13.5-12.3,27.2-12.3
		c16.3,0,29.3,7,29.3,25.1v51.1h-33.9v-41.9c0-7.6-3.1-9.9-9.1-9.9c-7,0-11.5,3.3-11.5,12.5v39.3h-32.8v-41.9c0-7.6-3.1-9.9-9.1-9.9
		c-7,0-11.5,3.3-11.5,12.5v39.3h-33.9V102.2z"/>
	<path class="st1" d="M743.4,76.2h33.9v34.4h0.3c5.8-6.9,15.6-10.4,29.4-10.4c22,0,42.1,12.1,42.1,39.6c0,27.5-20.2,39.6-42.1,39.6
		c-15.2,0-24.4-3.8-30.5-10.8h-0.3v7.9h-32.8V76.2z M795.8,156.6c13.1,0,18.6-7,18.6-16.8c0-9.6-6.1-16.8-18.4-16.8
		c-13.1,0-18.7,6.4-18.7,16.8C777.3,150.5,782.8,156.6,795.8,156.6z"/>
	<path class="st1" d="M861.3,76.2h33.9v100.1h-33.9V76.2z"/>
	<path class="st1" d="M1016.2,154.1c-2.6,8-8.3,14.1-16.9,18.4c-8.7,4.3-20.2,6.8-35.9,6.8c-35.6,0-56-13-56-40.1
		c0-25.6,19.6-40,52.8-40c33.1,0,56.8,11,56.4,48h-74.5c0,5.3,5.6,13.4,20.5,13.4c8.8,0,14-1.8,17.6-6.5H1016.2z M982.4,130.1
		c-0.7-8.1-8.3-13-20.1-13c-11.9,0-18.6,3.7-20.3,13H982.4z"/>
</g>
</svg>
